<?xml version="1.0" standalone="no"?><!DOCTYPE svg PUBLIC "-//W3C//DTD SVG 1.1//EN" "http://www.w3.org/Graphics/SVG/1.1/DTD/svg11.dtd"><svg class="icon" style="" viewBox="0 0 1409 1024" version="1.1" xmlns="http://www.w3.org/2000/svg" p-id="1737" xmlns:xlink="http://www.w3.org/1999/xlink" width="275.1953125" height="200"><defs><style type="text/css"><![CDATA[

]]></style></defs><path d="M1138.812121 397.187879c-31.030303 0-55.854545 9.309091-74.472727 31.030303-18.618182 21.721212-27.927273 49.648485-27.927273 86.884848 0 34.133333 9.309091 65.163636 27.927273 83.781818 18.618182 21.721212 43.442424 31.030303 71.369697 31.030303 31.030303 0 55.854545-9.309091 71.369697-31.030303 15.515152-18.618182 24.824242-49.648485 24.824242-86.884848 0-37.236364-9.309091-65.163636-24.824242-86.884848C1191.563636 406.49697 1169.842424 397.187879 1138.812121 397.187879z" p-id="1738" fill="#2c2c2c"></path><path d="M766.448485 397.187879c-31.030303 0-52.751515 12.412121-68.266667 34.133333-15.515152 21.721212-24.824242 52.751515-24.824242 89.987879 0 34.133333 9.309091 58.957576 24.824242 80.678788 15.515152 21.721212 37.236364 31.030303 65.163636 31.030303 27.927273 0 49.648485-9.309091 65.163636-27.927273 15.515152-18.618182 24.824242-43.442424 24.824242-74.472727l0-43.442424c0-24.824242-9.309091-43.442424-24.824242-62.060606C809.890909 406.49697 788.169697 397.187879 766.448485 397.187879z" p-id="1739" fill="#2c2c2c"></path><path d="M406.49697 397.187879c-31.030303 0-55.854545 9.309091-74.472727 31.030303-18.618182 21.721212-27.927273 49.648485-27.927273 86.884848 0 34.133333 9.309091 65.163636 27.927273 83.781818 18.618182 21.721212 43.442424 31.030303 71.369697 31.030303 31.030303 0 55.854545-9.309091 71.369697-31.030303 15.515152-18.618182 24.824242-49.648485 24.824242-86.884848 0-37.236364-9.309091-65.163636-24.824242-86.884848C462.351515 406.49697 437.527273 397.187879 406.49697 397.187879z" p-id="1740" fill="#2c2c2c"></path><path d="M1256.727273 0 148.945455 0C68.266667 0 0 68.266667 0 148.945455l0 726.109091C0 955.733333 68.266667 1024 148.945455 1024l1107.781818 0c80.678788 0 148.945455-68.266667 148.945455-148.945455L1405.672727 148.945455C1408.775758 68.266667 1340.509091 0 1256.727273 0zM173.769697 667.151515 117.915152 667.151515 117.915152 211.006061l55.854545 0L173.769697 667.151515zM515.10303 629.915152c-27.927273 31.030303-65.163636 46.545455-114.812121 46.545455-46.545455 0-83.781818-15.515152-111.709091-43.442424-27.927273-27.927273-40.339394-68.266667-40.339394-114.812121 0-49.648485 15.515152-89.987879 43.442424-121.018182 27.927273-31.030303 68.266667-43.442424 114.812121-43.442424 46.545455 0 83.781818 15.515152 108.606061 43.442424 27.927273 27.927273 40.339394 68.266667 40.339394 117.915152C558.545455 561.648485 543.030303 598.884848 515.10303 629.915152zM902.981818 642.327273c0 114.812121-55.854545 170.666667-167.563636 170.666667-37.236364 0-71.369697-6.206061-99.29697-21.721212l0-52.751515c34.133333 18.618182 68.266667 27.927273 99.29697 27.927273 74.472727 0 111.709091-40.339394 111.709091-117.915152l0-34.133333 0 0c-24.824242 40.339394-58.957576 58.957576-105.50303 58.957576-40.339394 0-71.369697-12.412121-93.090909-40.339394-24.824242-27.927273-34.133333-65.163636-34.133333-111.709091 0-52.751515 12.412121-96.193939 37.236364-124.121212 24.824242-31.030303 58.957576-46.545455 102.4-46.545455 40.339394 0 71.369697 15.515152 93.090909 49.648485l0 0 0-43.442424 55.854545 0L902.981818 642.327273zM1247.418182 629.915152c-27.927273 31.030303-65.163636 46.545455-114.812121 46.545455-46.545455 0-83.781818-15.515152-111.709091-43.442424-27.927273-27.927273-40.339394-68.266667-40.339394-114.812121 0-49.648485 15.515152-89.987879 43.442424-121.018182s68.266667-43.442424 114.812121-43.442424c46.545455 0 83.781818 15.515152 108.606061 43.442424 27.927273 27.927273 40.339394 68.266667 40.339394 117.915152C1290.860606 561.648485 1275.345455 598.884848 1247.418182 629.915152z" p-id="1741" fill="#2c2c2c"></path></svg>